<svg width="137" height="96" viewBox="0 0 137 96" fill="none" xmlns="http://www.w3.org/2000/svg">
<rect x="51" y="47.6776" width="25" height="25" transform="rotate(-45 51 47.6776)" fill="#D9D9D9" stroke="#737373"/>
<path d="M84.2188 90.7324L127.113 47.8379L84.2188 4.94335L88.1621 0.999996L135 47.8379L88.1621 94.6758L84.2188 90.7324Z" fill="#D9D9D9" fill-opacity="0.5"/>
<path d="M84.2188 90.7324L83.8652 90.3789L83.5116 90.7324L83.8652 91.086L84.2188 90.7324ZM127.113 47.8379L127.467 48.1914L127.82 47.8379L127.467 47.4843L127.113 47.8379ZM84.2188 4.94335L83.8652 4.5898L83.5117 4.94335L83.8652 5.29691L84.2188 4.94335ZM88.1621 0.999996L88.5157 0.646443L88.1621 0.292889L87.8086 0.646442L88.1621 0.999996ZM135 47.8379L135.354 48.1914L135.707 47.8379L135.354 47.4843L135 47.8379ZM88.1621 94.6758L87.8086 95.0293L88.1621 95.3829L88.5157 95.0293L88.1621 94.6758ZM84.2188 90.7324L84.5723 91.086L127.467 48.1914L127.113 47.8379L126.76 47.4843L83.8652 90.3789L84.2188 90.7324ZM127.113 47.8379L127.467 47.4843L84.5723 4.5898L84.2188 4.94335L83.8652 5.29691L126.76 48.1914L127.113 47.8379ZM84.2188 4.94335L84.5723 5.29691L88.5157 1.35355L88.1621 0.999996L87.8086 0.646442L83.8652 4.5898L84.2188 4.94335ZM88.1621 0.999996L87.8086 1.35355L134.646 48.1914L135 47.8379L135.354 47.4843L88.5157 0.646443L88.1621 0.999996ZM135 47.8379L134.646 47.4843L87.8086 94.3222L88.1621 94.6758L88.5157 95.0293L135.354 48.1914L135 47.8379ZM88.1621 94.6758L88.5157 94.3222L84.5723 90.3789L84.2188 90.7324L83.8652 91.086L87.8086 95.0293L88.1621 94.6758Z" fill="#737373" fill-opacity="0.5"/>
<path d="M53.7813 4.94335L10.8867 47.8379L53.7813 90.7324L49.8379 94.6758L3.00001 47.8379L49.8379 0.999992L53.7813 4.94335Z" fill="#D9D9D9" fill-opacity="0.5"/>
<path d="M53.7813 4.94335L54.1348 5.2969L54.4884 4.94335L54.1348 4.5898L53.7813 4.94335ZM10.8867 47.8379L10.5332 47.4843L10.1796 47.8379L10.5332 48.1914L10.8867 47.8379ZM53.7813 90.7324L54.1348 91.086L54.4884 90.7324L54.1348 90.3789L53.7813 90.7324ZM49.8379 94.6758L49.4844 95.0293L49.8379 95.3829L50.1915 95.0293L49.8379 94.6758ZM3.00001 47.8379L2.64645 47.4843L2.2929 47.8379L2.64645 48.1914L3.00001 47.8379ZM49.8379 0.999992L50.1914 0.646438L49.8379 0.292885L49.4843 0.646438L49.8379 0.999992ZM53.7813 4.94335L53.4277 4.5898L10.5332 47.4843L10.8867 47.8379L11.2403 48.1914L54.1348 5.2969L53.7813 4.94335ZM10.8867 47.8379L10.5332 48.1914L53.4277 91.086L53.7813 90.7324L54.1348 90.3789L11.2403 47.4843L10.8867 47.8379ZM53.7813 90.7324L53.4277 90.3789L49.4844 94.3222L49.8379 94.6758L50.1915 95.0293L54.1348 91.086L53.7813 90.7324ZM49.8379 94.6758L50.1915 94.3222L3.35356 47.4843L3.00001 47.8379L2.64645 48.1914L49.4844 95.0293L49.8379 94.6758ZM3.00001 47.8379L3.35356 48.1914L50.1914 1.35355L49.8379 0.999992L49.4843 0.646438L2.64645 47.4843L3.00001 47.8379ZM49.8379 0.999992L49.4843 1.35355L53.4277 5.2969L53.7813 4.94335L54.1348 4.5898L50.1914 0.646438L49.8379 0.999992Z" fill="#737373" fill-opacity="0.5"/>
</svg>
